<?xml version="1.0" encoding="UTF-8"?>
<svg xmlns="http://www.w3.org/2000/svg" viewBox="0 0 536.82 717.14">
  <defs>
    <style>
      .cls-1 {
        fill: #fff;
      }
    </style>
  </defs>
  <g id="Layer_1">
    <path class="cls-1" d="M236.33,0H29.73v557.44s196.61,1.43,206.6,0c9.91-1.43,270.75-1.52,270.77-279.48C507.11,0,236.33,0,236.33,0ZM236.31,431.23h-80.06V126.84h80.06v224.33h144.25s.6,80.06-144.25,80.06Z"/>
  </g>
  <g id="Text">
    <path class="cls-1" d="M0,623.09h41.5c28.33,0,49.58,12.89,49.58,47.3s-22.38,46.74-50.99,46.74H0v-94.05ZM38.95,698.02c15.86,0,22.24-7.36,22.24-27.48v-.57c0-20.4-6.23-27.62-21.95-27.62h-10.2v55.67h9.91Z"/>
    <path class="cls-1" d="M94.5,690.94h26.91v26.2h-26.91v-26.2Z"/>
    <path class="cls-1" d="M160.41,623.09h29.04v73.93h36.97v20.11h-66.01v-94.05Z"/>
    <path class="cls-1" d="M233.95,623.09h29.04v94.05h-29.04v-94.05Z"/>
    <path class="cls-1" d="M270.51,623.09h41.5c28.33,0,49.58,12.89,49.58,47.3s-22.38,46.74-50.99,46.74h-40.09v-94.05ZM309.47,698.02c15.86,0,22.24-7.36,22.24-27.48v-.57c0-20.4-6.23-27.62-21.96-27.62h-10.2v55.67h9.91Z"/>
    <path class="cls-1" d="M367.12,623.09h73.65v20.11h-45.18v16.15h26.91v20.54h-26.91v16.71h46.31v20.54h-74.78v-94.05ZM403.38,595.61h29.74v2.84l-30.88,18.98h-6.94l8.08-21.82Z"/>
    <path class="cls-1" d="M448.43,623.09h31.87l33.86,52.26v-52.26h22.66v94.05h-27.62l-38.11-59.63v59.63h-22.66v-94.05Z"/>
  </g>
</svg>